# xmcd
#
# Track frame offsets: 
#        150
#        23530
#        52695
#        75700
#        95748
#        123240
#        143618
#        166425
#        185150
#        207378
#        230478
#        252700
#
# Disc length: 3689 seconds
#
# Revision: 1
# Processed by: cddbd v1.5.2PL0 Copyright (c) Steve Scherf et al.
# Submitted via: ExactAudioCopy v1.0b3
#
DISCID=a10e670c
DTITLE=Huong Lan - Lan va Diep 2
DYEAR=1989
DGENRE=VPop
TTITLE0=Lan va Diep 2
TTITLE1=Toi ban duong to
TTITLE2=Nguoi ngoai pho
TTITLE3=Huong Lan, Duy Quang - Anh ve keo mua
TTITLE4=Ai ra xu Hue
TTITLE5=Huong Lan, Duy Quang - Neu anh dung hen
TTITLE6=Thuong ve mua dong bien gioi
TTITLE7=Mot minh thoi
TTITLE8=Tinh chi dep
TTITLE9=Huong Lan, Duy Quang - Hanh trang gia tu
TTITLE10=Loai hoa khong vo
TTITLE11=Nhung con duong trang
EXTD=
EXTT0=
EXTT1=
EXTT2=
EXTT3=
EXTT4=
EXTT5=
EXTT6=
EXTT7=
EXTT8=
EXTT9=
EXTT10=
EXTT11=
PLAYORDER=
